<svg width="184" height="25" viewBox="0 0 184 25" fill="none" xmlns="http://www.w3.org/2000/svg">
<path d="M18.0246 23.439H24.5773V24.9347H0.305908V23.439H6.8586C5.25226 22.3492 3.98286 20.8535 3.0504 18.9521C2.12186 17.0506 1.65758 14.9405 1.65758 12.6217C1.65758 9.05067 2.69583 6.06401 4.77232 3.6617C6.8488 1.26402 9.40524 0.0651855 12.4416 0.0651855C15.478 0.0651855 18.0344 1.26402 20.1109 3.6617C22.1874 6.06401 23.2256 9.05067 23.2256 12.6217C23.2256 14.9405 22.7555 17.0506 21.8152 18.9521C20.8749 20.8535 19.6114 22.3492 18.0246 23.439ZM18.5535 12.6356C18.5535 10.4698 17.9659 8.62168 16.7905 7.09125C15.6151 5.56082 14.1714 4.79561 12.4592 4.79561C10.7432 4.79561 9.29749 5.56082 8.12212 7.09125C6.94675 8.62168 6.35907 10.4698 6.35907 12.6356C6.35907 14.806 6.94675 16.6495 8.12212 18.166C9.29749 19.6872 10.7432 20.4477 12.4592 20.4477C14.1714 20.4477 15.6151 19.6872 16.7905 18.166C17.9659 16.6495 18.5535 14.806 18.5535 12.6356ZM47.5558 23.439H54.1967V24.9347H43.7065L39.2107 8.03038L34.7443 24.9347H24.2541V23.439H30.8949L24.1659 0.621705H29.1319L33.1869 14.6043L36.8306 0.621705H41.6202L45.2345 14.6043L49.3189 0.621705H54.2848L47.5558 23.439ZM74.5893 23.439H77.9979V24.9347H70.2699L68.3599 19.6825H59.7503L57.8403 24.9347H50.1122V23.439H53.4914L61.8366 0.621705H66.2736L74.5893 23.439ZM66.6262 14.9173L64.0698 7.85647L61.484 14.9173H66.6262ZM91.6263 23.439H95.7401V24.9347H74.6716V23.439H77.5219V0.621705H85.5144C86.9053 0.621705 88.1061 0.818808 89.1169 1.21301C90.1238 1.60721 90.8819 2.14054 91.3913 2.813C92.312 4.06518 92.7723 5.47966 92.7723 7.05647C92.7723 8.95791 92.2532 10.3724 91.215 11.2999C90.8623 11.6246 90.6175 11.8263 90.4803 11.9052C90.3432 11.9886 90.0984 12.1231 89.7457 12.3086C91.0191 12.6333 92.0338 13.3104 92.7899 14.3399C93.5422 15.3741 93.9183 16.6564 93.9183 18.1869C93.9183 20.4825 93.1543 22.2332 91.6263 23.439ZM82.1058 14.7434V20.3434H85.2499C86.5624 20.3434 87.5478 20.1509 88.206 19.766C88.8603 19.3857 89.1874 18.6321 89.1874 17.5051C89.1874 16.3828 88.8407 15.6408 88.1472 15.2791C87.4499 14.922 86.3372 14.7434 84.8092 14.7434H82.1058ZM82.1058 5.213V10.4652H84.2803C85.5536 10.4652 86.4998 10.3028 87.1188 9.9782C87.7339 9.65357 88.0415 8.95096 88.0415 7.87038C88.0415 6.79444 87.7574 6.08256 87.1893 5.73474C86.6212 5.38691 85.6613 5.213 84.3097 5.213H82.1058ZM113.459 23.439H120.012V24.9347H95.7401V23.439H102.293C100.686 22.3492 99.419 20.8535 98.4905 18.9521C97.558 17.0506 97.0918 14.9405 97.0918 12.6217C97.0918 9.05067 98.1301 6.06401 100.207 3.6617C102.283 1.26402 104.839 0.0651855 107.876 0.0651855C110.912 0.0651855 113.469 1.26402 115.545 3.6617C117.622 6.06401 118.66 9.05067 118.66 12.6217C118.66 14.9405 118.19 17.0506 117.249 18.9521C116.309 20.8535 115.046 22.3492 113.459 23.439ZM113.988 12.6356C113.988 10.4698 113.4 8.62168 112.225 7.09125C111.049 5.56082 109.606 4.79561 107.893 4.79561C106.177 4.79561 104.732 5.56082 103.556 7.09125C102.381 8.62168 101.793 10.4698 101.793 12.6356C101.793 14.806 102.381 16.6495 103.556 18.166C104.732 19.6872 106.177 20.4477 107.893 20.4477C109.606 20.4477 111.049 19.6872 112.225 18.166C113.4 16.6495 113.988 14.806 113.988 12.6356ZM137.73 23.439H144.283V24.9347H120.012V23.439H126.564C124.958 22.3492 123.688 20.8535 122.756 18.9521C121.827 17.0506 121.363 14.9405 121.363 12.6217C121.363 9.05067 122.401 6.06401 124.478 3.6617C126.554 1.26402 129.111 0.0651855 132.147 0.0651855C135.184 0.0651855 137.74 1.26402 139.817 3.6617C141.893 6.06401 142.931 9.05067 142.931 12.6217C142.931 14.9405 142.461 17.0506 141.521 18.9521C140.581 20.8535 139.317 22.3492 137.73 23.439ZM138.259 12.6356C138.259 10.4698 137.671 8.62168 136.496 7.09125C135.321 5.56082 133.875 4.79561 132.159 4.79561C130.447 4.79561 129.003 5.56082 127.828 7.09125C126.652 8.62168 126.065 10.4698 126.065 12.6356C126.065 14.806 126.652 16.6495 127.828 18.166C129.003 19.6872 130.447 20.4477 132.159 20.4477C133.875 20.4477 135.321 19.6872 136.496 18.166C137.671 16.6495 138.259 14.806 138.259 12.6356ZM164.823 0.621705L156.654 11.3695L163.912 23.439H166.351V24.9347H159.475L153.451 15.3347L151.394 18.0477V24.9347H144.283V23.439H146.81V0.621705H151.394V10.6043L159.151 0.621705H164.823ZM179.568 23.439H183.329V24.9347H164.582V23.439H168.578C167.5 22.7898 166.521 21.955 165.639 20.9347L168.372 16.9695C170.586 19.2651 172.633 20.413 174.513 20.413C175.356 20.413 176.018 20.1973 176.5 19.766C176.978 19.3393 177.217 18.7596 177.217 18.0269C177.217 17.2988 176.962 16.7191 176.453 16.2878C175.944 15.8611 174.935 15.4275 173.426 14.9869C171.036 14.3144 169.289 13.4402 168.184 12.3643C167.075 11.2837 166.521 9.58864 166.521 7.27908C166.521 4.97416 167.222 3.19561 168.625 1.94344C170.024 0.691271 171.771 0.0651855 173.867 0.0651855C175.238 0.0651855 176.61 0.343446 177.981 0.899966C179.352 1.45649 180.547 2.24489 181.566 3.26518L179.244 7.23038C177.462 5.63039 175.62 4.83039 173.72 4.83039C172.956 4.83039 172.355 5.04372 171.916 5.47039C171.473 5.90169 171.252 6.46981 171.252 7.17473C171.252 7.88429 171.522 8.44777 172.063 8.86516C172.6 9.28255 173.844 9.77415 175.795 10.3399C177.742 10.9104 179.254 11.7637 180.332 12.8999C181.409 14.0362 181.948 15.613 181.948 17.6304C181.948 20.1347 181.154 22.0709 179.568 23.439Z" fill="#F27851"/>
</svg>
