<svg width="585" height="550" viewBox="0 0 585 550" fill="none" xmlns="http://www.w3.org/2000/svg">
<mask id="mask0_30_742" style="mask-type:alpha" maskUnits="userSpaceOnUse" x="0" y="0" width="585" height="550">
<rect width="585" height="550" fill="#3056D3"/>
</mask>
<g mask="url(#mask0_30_742)">
<rect width="585" height="550" fill="#F27851"/>
<circle cx="167.5" cy="107.5" r="247.5" fill="url(#paint0_linear_30_742)"/>
<circle cx="457.5" cy="447.5" r="42.5" transform="rotate(-90 457.5 447.5)" fill="url(#paint1_linear_30_742)"/>
<circle cy="177" r="177" fill="url(#paint2_linear_30_742)"/>
<path d="M56.7699 420V399.636H61.0753V408.038H69.8153V399.636H74.1108V420H69.8153V411.588H61.0753V420H56.7699ZM84.5412 420.298C82.9702 420.298 81.6179 419.98 80.4844 419.344C79.3575 418.701 78.4891 417.793 77.8793 416.619C77.2694 415.439 76.9645 414.044 76.9645 412.433C76.9645 410.862 77.2694 409.483 77.8793 408.297C78.4891 407.11 79.3475 406.186 80.4545 405.523C81.5682 404.86 82.8741 404.528 84.3722 404.528C85.3797 404.528 86.3177 404.691 87.1861 405.016C88.0611 405.334 88.8234 405.814 89.473 406.457C90.1293 407.1 90.6397 407.909 91.0043 408.884C91.3688 409.851 91.5511 410.985 91.5511 412.284V413.447H78.6548V410.822H87.5639C87.5639 410.213 87.4313 409.672 87.1662 409.202C86.901 408.731 86.5331 408.363 86.0625 408.098C85.5985 407.826 85.0582 407.69 84.4418 407.69C83.7988 407.69 83.2287 407.839 82.7315 408.138C82.241 408.429 81.8565 408.824 81.5781 409.321C81.2997 409.812 81.1572 410.358 81.1506 410.962V413.457C81.1506 414.213 81.2898 414.866 81.5682 415.416C81.8532 415.966 82.2543 416.391 82.7713 416.689C83.2884 416.987 83.9015 417.136 84.6108 417.136C85.0814 417.136 85.5123 417.07 85.9034 416.938C86.2945 416.805 86.6293 416.606 86.9077 416.341C87.1861 416.076 87.3982 415.751 87.544 415.366L91.4616 415.625C91.2628 416.566 90.8551 417.388 90.2386 418.091C89.6288 418.787 88.84 419.33 87.8722 419.722C86.911 420.106 85.8007 420.298 84.5412 420.298ZM96.5202 425.727C95.9833 425.727 95.4795 425.684 95.0089 425.598C94.5449 425.518 94.1604 425.416 93.8555 425.29L94.81 422.128C95.3072 422.28 95.7546 422.363 96.1523 422.376C96.5567 422.39 96.9047 422.297 97.1964 422.098C97.4947 421.899 97.7366 421.561 97.9222 421.084L98.1708 420.438L92.6921 404.727H97.1467L100.309 415.943H100.468L103.659 404.727H108.144L102.208 421.651C101.923 422.473 101.535 423.188 101.044 423.798C100.56 424.415 99.9473 424.889 99.2049 425.22C98.4625 425.558 97.5676 425.727 96.5202 425.727ZM61.3537 454L55.527 433.636H60.2301L63.6009 447.786H63.7699L67.4886 433.636H71.5156L75.2244 447.815H75.4034L78.7741 433.636H83.4773L77.6506 454H73.4545L69.5767 440.686H69.4176L65.5497 454H61.3537ZM91.0217 454.298C89.4506 454.298 88.0984 453.98 86.9648 453.344C85.8379 452.701 84.9696 451.793 84.3597 450.619C83.7499 449.439 83.445 448.044 83.445 446.433C83.445 444.862 83.7499 443.483 84.3597 442.297C84.9696 441.11 85.828 440.186 86.935 439.523C88.0487 438.86 89.3545 438.528 90.8526 438.528C91.8602 438.528 92.7982 438.691 93.6665 439.016C94.5415 439.334 95.3039 439.814 95.9535 440.457C96.6097 441.1 97.1201 441.909 97.4847 442.884C97.8493 443.851 98.0316 444.985 98.0316 446.284V447.447H85.1353V444.822H94.0444C94.0444 444.213 93.9118 443.672 93.6467 443.202C93.3815 442.731 93.0136 442.363 92.543 442.098C92.079 441.826 91.5387 441.69 90.9222 441.69C90.2792 441.69 89.7092 441.839 89.212 442.138C88.7215 442.429 88.337 442.824 88.0586 443.321C87.7802 443.812 87.6377 444.358 87.631 444.962V447.457C87.631 448.213 87.7702 448.866 88.0487 449.416C88.3337 449.966 88.7347 450.391 89.2518 450.689C89.7688 450.987 90.382 451.136 91.0913 451.136C91.5619 451.136 91.9928 451.07 92.3839 450.938C92.775 450.805 93.1097 450.606 93.3881 450.341C93.6665 450.076 93.8787 449.751 94.0245 449.366L97.9421 449.625C97.7433 450.566 97.3356 451.388 96.7191 452.091C96.1093 452.787 95.3204 453.33 94.3526 453.722C93.3915 454.106 92.2811 454.298 91.0217 454.298ZM105.032 433.636V454H100.796V433.636H105.032ZM115.325 454.298C113.761 454.298 112.415 453.967 111.288 453.304C110.168 452.634 109.306 451.706 108.703 450.52C108.107 449.333 107.808 447.968 107.808 446.423C107.808 444.859 108.11 443.487 108.713 442.307C109.323 441.12 110.188 440.196 111.308 439.533C112.429 438.863 113.761 438.528 115.305 438.528C116.638 438.528 117.804 438.77 118.805 439.254C119.806 439.738 120.598 440.418 121.182 441.293C121.765 442.168 122.087 443.195 122.146 444.375H118.149C118.036 443.613 117.738 443 117.254 442.536C116.777 442.065 116.151 441.83 115.375 441.83C114.719 441.83 114.145 442.009 113.655 442.366C113.171 442.718 112.793 443.232 112.521 443.908C112.25 444.584 112.114 445.402 112.114 446.364C112.114 447.338 112.246 448.167 112.511 448.849C112.783 449.532 113.164 450.053 113.655 450.411C114.145 450.768 114.719 450.947 115.375 450.947C115.859 450.947 116.293 450.848 116.678 450.649C117.069 450.45 117.39 450.162 117.642 449.784C117.901 449.4 118.07 448.939 118.149 448.402H122.146C122.08 449.569 121.762 450.596 121.192 451.484C120.628 452.366 119.849 453.055 118.855 453.553C117.861 454.05 116.684 454.298 115.325 454.298ZM131.759 454.298C130.214 454.298 128.879 453.97 127.752 453.314C126.632 452.651 125.766 451.73 125.157 450.55C124.547 449.363 124.242 447.988 124.242 446.423C124.242 444.846 124.547 443.467 125.157 442.287C125.766 441.1 126.632 440.179 127.752 439.523C128.879 438.86 130.214 438.528 131.759 438.528C133.303 438.528 134.636 438.86 135.756 439.523C136.883 440.179 137.751 441.1 138.361 442.287C138.971 443.467 139.276 444.846 139.276 446.423C139.276 447.988 138.971 449.363 138.361 450.55C137.751 451.73 136.883 452.651 135.756 453.314C134.636 453.97 133.303 454.298 131.759 454.298ZM131.779 451.017C132.481 451.017 133.068 450.818 133.539 450.42C134.009 450.016 134.364 449.466 134.603 448.77C134.848 448.074 134.971 447.282 134.971 446.393C134.971 445.505 134.848 444.713 134.603 444.017C134.364 443.321 134.009 442.771 133.539 442.366C133.068 441.962 132.481 441.76 131.779 441.76C131.069 441.76 130.473 441.962 129.989 442.366C129.512 442.771 129.15 443.321 128.905 444.017C128.667 444.713 128.547 445.505 128.547 446.393C128.547 447.282 128.667 448.074 128.905 448.77C129.15 449.466 129.512 450.016 129.989 450.42C130.473 450.818 131.069 451.017 131.779 451.017ZM142.03 454V438.727H146.067V441.422H146.246C146.564 440.527 147.095 439.821 147.837 439.304C148.579 438.787 149.468 438.528 150.502 438.528C151.549 438.528 152.441 438.79 153.176 439.314C153.912 439.831 154.403 440.534 154.648 441.422H154.807C155.119 440.547 155.682 439.848 156.498 439.324C157.319 438.794 158.291 438.528 159.411 438.528C160.836 438.528 161.993 438.982 162.881 439.891C163.776 440.792 164.223 442.071 164.223 443.729V454H159.998V444.564C159.998 443.715 159.772 443.079 159.321 442.655C158.871 442.231 158.307 442.018 157.631 442.018C156.862 442.018 156.262 442.264 155.831 442.754C155.4 443.238 155.185 443.878 155.185 444.673V454H151.078V444.474C151.078 443.725 150.863 443.129 150.432 442.685C150.008 442.241 149.448 442.018 148.752 442.018C148.281 442.018 147.857 442.138 147.479 442.376C147.108 442.608 146.813 442.937 146.594 443.361C146.375 443.778 146.266 444.269 146.266 444.832V454H142.03ZM174.529 454.298C172.958 454.298 171.606 453.98 170.473 453.344C169.346 452.701 168.477 451.793 167.868 450.619C167.258 449.439 166.953 448.044 166.953 446.433C166.953 444.862 167.258 443.483 167.868 442.297C168.477 441.11 169.336 440.186 170.443 439.523C171.556 438.86 172.862 438.528 174.36 438.528C175.368 438.528 176.306 438.691 177.174 439.016C178.049 439.334 178.812 439.814 179.461 440.457C180.118 441.1 180.628 441.909 180.993 442.884C181.357 443.851 181.539 444.985 181.539 446.284V447.447H168.643V444.822H177.552C177.552 444.213 177.42 443.672 177.154 443.202C176.889 442.731 176.521 442.363 176.051 442.098C175.587 441.826 175.047 441.69 174.43 441.69C173.787 441.69 173.217 441.839 172.72 442.138C172.229 442.429 171.845 442.824 171.566 443.321C171.288 443.812 171.145 444.358 171.139 444.962V447.457C171.139 448.213 171.278 448.866 171.556 449.416C171.842 449.966 172.243 450.391 172.76 450.689C173.277 450.987 173.89 451.136 174.599 451.136C175.07 451.136 175.501 451.07 175.892 450.938C176.283 450.805 176.618 450.606 176.896 450.341C177.174 450.076 177.386 449.751 177.532 449.366L181.45 449.625C181.251 450.566 180.843 451.388 180.227 452.091C179.617 452.787 178.828 453.33 177.86 453.722C176.899 454.106 175.789 454.298 174.529 454.298ZM56.7699 488V467.636H64.9233C66.4214 467.636 67.6709 467.858 68.6719 468.303C69.6728 468.747 70.4252 469.363 70.929 470.152C71.4328 470.934 71.6847 471.836 71.6847 472.857C71.6847 473.652 71.5256 474.351 71.2074 474.955C70.8892 475.551 70.4517 476.042 69.8949 476.426C69.3447 476.804 68.715 477.072 68.0057 477.232V477.43C68.7813 477.464 69.5071 477.682 70.1832 478.087C70.866 478.491 71.4195 479.058 71.8438 479.787C72.268 480.509 72.4801 481.371 72.4801 482.372C72.4801 483.453 72.2116 484.417 71.6747 485.266C71.1444 486.107 70.3589 486.774 69.3182 487.264C68.2775 487.755 66.9948 488 65.4702 488H56.7699ZM61.0753 484.48H64.5852C65.785 484.48 66.66 484.251 67.2102 483.794C67.7604 483.33 68.0355 482.714 68.0355 481.945C68.0355 481.381 67.8996 480.884 67.6278 480.453C67.3561 480.022 66.9683 479.684 66.4645 479.439C65.9673 479.194 65.3741 479.071 64.6847 479.071H61.0753V484.48ZM61.0753 476.158H64.267C64.857 476.158 65.3807 476.055 65.8381 475.849C66.3021 475.637 66.6667 475.339 66.9318 474.955C67.2036 474.57 67.3395 474.109 67.3395 473.572C67.3395 472.837 67.0777 472.243 66.554 471.793C66.0369 471.342 65.3011 471.116 64.3466 471.116H61.0753V476.158ZM79.5572 488.288C78.5827 488.288 77.7144 488.119 76.9521 487.781C76.1897 487.437 75.5865 486.929 75.1424 486.26C74.7049 485.584 74.4862 484.742 74.4862 483.734C74.4862 482.886 74.6419 482.173 74.9535 481.597C75.265 481.02 75.6893 480.556 76.2262 480.205C76.7631 479.853 77.373 479.588 78.0558 479.409C78.7451 479.23 79.4677 479.104 80.2234 479.031C81.1116 478.938 81.8275 478.852 82.3711 478.773C82.9147 478.687 83.3091 478.561 83.5543 478.395C83.7996 478.229 83.9222 477.984 83.9222 477.659V477.599C83.9222 476.97 83.7234 476.482 83.3256 476.138C82.9345 475.793 82.3777 475.621 81.6552 475.621C80.8929 475.621 80.2863 475.79 79.8356 476.128C79.3848 476.459 79.0865 476.877 78.9407 477.381L75.0231 477.062C75.2219 476.134 75.613 475.332 76.1964 474.656C76.7797 473.973 77.5321 473.45 78.4535 473.085C79.3815 472.714 80.4554 472.528 81.6751 472.528C82.5236 472.528 83.3356 472.628 84.1112 472.827C84.8933 473.026 85.5861 473.334 86.1893 473.751C86.7991 474.169 87.2797 474.706 87.631 475.362C87.9824 476.012 88.158 476.791 88.158 477.699V488H84.141V485.882H84.0217C83.7764 486.359 83.4483 486.78 83.0373 487.145C82.6263 487.503 82.1325 487.785 81.5558 487.99C80.979 488.189 80.3129 488.288 79.5572 488.288ZM80.7702 485.365C81.3933 485.365 81.9435 485.242 82.4208 484.997C82.8981 484.745 83.2726 484.407 83.5444 483.983C83.8162 483.559 83.9521 483.078 83.9521 482.541V480.92C83.8195 481.007 83.6372 481.086 83.4052 481.159C83.1798 481.225 82.9246 481.288 82.6396 481.348C82.3545 481.401 82.0695 481.451 81.7844 481.497C81.4994 481.537 81.2409 481.573 81.0089 481.607C80.5117 481.679 80.0775 481.795 79.7063 481.955C79.3351 482.114 79.0468 482.329 78.8413 482.601C78.6358 482.866 78.533 483.197 78.533 483.595C78.533 484.172 78.7418 484.613 79.1594 484.918C79.5837 485.216 80.1206 485.365 80.7702 485.365ZM98.3448 488.298C96.7804 488.298 95.4348 487.967 94.3079 487.304C93.1876 486.634 92.3259 485.706 91.7227 484.52C91.1261 483.333 90.8278 481.968 90.8278 480.423C90.8278 478.859 91.1294 477.487 91.7326 476.307C92.3424 475.12 93.2075 474.196 94.3278 473.533C95.448 472.863 96.7804 472.528 98.3249 472.528C99.6573 472.528 100.824 472.77 101.825 473.254C102.826 473.738 103.618 474.418 104.201 475.293C104.785 476.168 105.106 477.195 105.166 478.375H101.169C101.056 477.613 100.758 477 100.274 476.536C99.7965 476.065 99.1701 475.83 98.3945 475.83C97.7383 475.83 97.1649 476.009 96.6744 476.366C96.1905 476.718 95.8126 477.232 95.5408 477.908C95.2691 478.584 95.1332 479.402 95.1332 480.364C95.1332 481.338 95.2657 482.167 95.5309 482.849C95.8027 483.532 96.1838 484.053 96.6744 484.411C97.1649 484.768 97.7383 484.947 98.3945 484.947C98.8784 484.947 99.3126 484.848 99.6971 484.649C100.088 484.45 100.41 484.162 100.662 483.784C100.92 483.4 101.089 482.939 101.169 482.402H105.166C105.1 483.569 104.781 484.596 104.211 485.484C103.648 486.366 102.869 487.055 101.875 487.553C100.88 488.05 99.7037 488.298 98.3448 488.298ZM111.716 483.605L111.726 478.524H112.342L117.234 472.727H122.097L115.524 480.403H114.52L111.716 483.605ZM107.878 488V467.636H112.114V488H107.878ZM117.423 488L112.929 481.348L115.753 478.355L122.385 488H117.423Z" fill="white"/>
</g>
<defs>
<linearGradient id="paint0_linear_30_742" x1="167.5" y1="-140" x2="167.5" y2="355" gradientUnits="userSpaceOnUse">
<stop offset="0.177083" stop-color="white" stop-opacity="0.16"/>
<stop offset="1" stop-color="white" stop-opacity="0"/>
</linearGradient>
<linearGradient id="paint1_linear_30_742" x1="457.5" y1="405" x2="457.5" y2="490" gradientUnits="userSpaceOnUse">
<stop offset="0.177083" stop-color="white" stop-opacity="0.16"/>
<stop offset="1" stop-color="white" stop-opacity="0"/>
</linearGradient>
<linearGradient id="paint2_linear_30_742" x1="0" y1="0" x2="0" y2="354" gradientUnits="userSpaceOnUse">
<stop offset="0.177083" stop-color="white" stop-opacity="0.2"/>
<stop offset="1" stop-color="white" stop-opacity="0"/>
</linearGradient>
</defs>
</svg>
